<?xml version="1.0" standalone="no"?>
<!DOCTYPE svg PUBLIC "-//W3C//DTD SVG 20010904//EN"
 "http://www.w3.org/TR/2001/REC-SVG-20010904/DTD/svg10.dtd">
<svg version="1.0" xmlns="http://www.w3.org/2000/svg"
 width="512.000000pt" height="512.000000pt" viewBox="0 0 512.000000 512.000000"
 preserveAspectRatio="xMidYMid meet">
<metadata>
Created by potrace 1.11, written by Peter Selinger 2001-2013
</metadata>
<g transform="translate(0.000000,512.000000) scale(0.100000,-0.100000)"
fill="#000000" stroke="none">
<path d="M675 4504 c-36 -19 -56 -40 -73 -77 -9 -22 -12 -210 -12 -839 0 -778
1 -811 20 -847 10 -21 31 -47 47 -57 27 -18 59 -19 868 -19 l840 0 35 27 c19
15 41 42 48 60 9 25 12 216 10 853 -3 774 -4 822 -21 847 -10 15 -30 35 -45
45 -26 17 -73 18 -857 20 -732 2 -834 1 -860 -13z"/>
<path d="M2675 4505 c-16 -7 -41 -28 -55 -47 l-25 -33 -3 -1850 c-2 -1417 1
-1857 10 -1880 14 -35 60 -81 91 -89 12 -3 398 -5 857 -3 820 2 836 2 856 22
12 11 29 34 38 52 15 30 16 186 14 1890 -3 1778 -4 1859 -21 1885 -10 15 -30
35 -45 45 -26 17 -73 18 -857 20 -670 1 -836 -1 -860 -12z"/>
<path d="M680 2517 c-38 -18 -66 -48 -79 -86 -8 -25 -11 -264 -11 -878 0 -838
1 -843 21 -878 12 -20 39 -45 60 -55 37 -19 64 -20 854 -20 738 0 819 2 848
16 47 24 76 63 82 109 3 22 5 416 3 875 l-3 835 -25 33 c-48 65 -11 62 -909
61 -594 -1 -823 -4 -841 -12z"/>
</g>
</svg>
